<?xml version="1.0" standalone="no"?>
<!DOCTYPE svg PUBLIC "-//W3C//DTD SVG 20010904//EN"
 "http://www.w3.org/TR/2001/REC-SVG-20010904/DTD/svg10.dtd">
<svg version="1.0" xmlns="http://www.w3.org/2000/svg"
 width="256.000000pt" height="256.000000pt" viewBox="0 0 256.000000 256.000000"
 preserveAspectRatio="xMidYMid meet">
<metadata>
Created by potrace 1.14, written by Peter Selinger 2001-2017
</metadata>
<g transform="translate(0.000000,256.000000) scale(0.100000,-0.100000)"
fill="#000000" stroke="none">
<path d="M0 1280 l0 -1280 1280 0 1280 0 0 1280 0 1280 -1280 0 -1280 0 0
-1280z m1510 1146 c404 -87 738 -393 863 -791 74 -236 71 -514 -8 -745 -58
-172 -149 -316 -284 -451 -306 -307 -737 -414 -1139 -283 -350 114 -634 404
-745 759 -38 121 -51 217 -51 360 0 147 14 241 55 368 140 430 503 736 944
796 88 12 279 5 365 -13z"/>
<path d="M1119 2381 c-539 -99 -919 -557 -919 -1106 0 -169 46 -368 116 -507
142 -281 404 -496 700 -575 87 -23 119 -26 264 -27 139 -1 179 3 251 21 633
161 989 827 779 1455 -117 349 -408 623 -756 714 -79 21 -128 27 -244 29 -80
2 -166 0 -191 -4z m269 -150 c79 -40 122 -115 122 -211 0 -69 -14 -110 -55
-158 -79 -94 -220 -106 -315 -25 -59 51 -84 104 -84 183 0 79 25 132 85 183
69 60 164 70 247 28z m-768 -426 c30 -8 97 -26 149 -40 129 -34 361 -58 576
-59 157 0 190 3 260 23 122 34 333 81 395 87 76 7 120 -16 140 -74 13 -38 13
-46 0 -70 -39 -69 -130 -94 -461 -127 l-67 -6 -16 -58 c-47 -169 -18 -659 54
-886 40 -127 45 -171 25 -223 -29 -70 -81 -81 -157 -33 -60 38 -101 120 -128
258 -22 111 -87 343 -99 356 -10 10 -64 -168 -101 -334 -17 -74 -38 -152 -48
-174 -52 -121 -168 -174 -226 -104 -37 43 -36 120 3 236 34 103 56 233 72 426
14 171 8 427 -12 481 l-14 39 -210 38 c-288 52 -321 67 -332 146 -4 32 0 45
21 70 37 44 85 52 176 28z"/>
</g>
</svg>
